<?xml version="1.0" encoding="utf-8"?>
<!-- Generator: Adobe Illustrator 18.0.0, SVG Export Plug-In . SVG Version: 6.00 Build 0)  -->
<!DOCTYPE svg PUBLIC "-//W3C//DTD SVG 1.1//EN" "http://www.w3.org/Graphics/SVG/1.1/DTD/svg11.dtd">
<svg version="1.1" id="Layer_1" xmlns="http://www.w3.org/2000/svg" xmlns:xlink="http://www.w3.org/1999/xlink" x="0px" y="0px"
	 viewBox="0 0 1000 378.2" enable-background="new 0 0 1000 378.2" xml:space="preserve">
<g>
	<g>
		<path fill="#FFFFFF" d="M470.8,57.6h23.1L534.2,165h-22.3l-8.8-25.6h-41.4l-8.8,25.6h-22.3L470.8,57.6z M496.4,120.7l-9.6-26.8
			l-3.9-13h-1.2l-3.9,13l-9.6,26.8H496.4z"/>
		<path fill="#FFFFFF" d="M575.4,56.4c2.8,0,5.4,0.3,7.8,0.7c2.4,0.5,4.5,1.2,6.4,1.9l-5.5,17.5c-1-0.5-2.1-0.9-3.2-1.2
			c-1.2-0.3-2.6-0.4-4.3-0.4c-2.9,0-5.2,0.9-6.9,2.8c-1.7,1.9-2.5,4.4-2.5,7.7v6h18.3v16.8h-18.3V165h-19.6v-56.7h-13.2V91.5h13.2
			v-7.2c0-4.5,0.7-8.5,2-11.9c1.3-3.4,3.3-6.3,5.8-8.7c2.5-2.3,5.4-4.1,8.8-5.4C567.5,57.1,571.3,56.4,575.4,56.4z"/>
		<path fill="#FFFFFF" d="M598.6,91.5h18.4v10.2h1.2c0.9-1.8,2.1-3.4,3.6-4.9c1.5-1.5,3.2-2.8,5-3.9c1.8-1.1,3.8-2,6-2.7
			c2.1-0.7,4.3-1,6.4-1c2.6,0,4.8,0.3,6.7,0.8c1.8,0.6,3.4,1.3,4.7,2.2l-5.2,17.5c-1.2-0.6-2.5-1.1-4-1.4c-1.5-0.3-3.2-0.5-5.3-0.5
			c-2.7,0-5.1,0.5-7.3,1.6c-2.2,1.1-4.1,2.5-5.6,4.4c-1.6,1.9-2.8,4.1-3.6,6.7c-0.9,2.6-1.3,5.4-1.3,8.4V165h-19.6V91.5z"/>
		<path fill="#FFFFFF" d="M670.6,81.6c-1.7,0-3.3-0.3-4.9-1c-1.6-0.6-2.9-1.5-4-2.7c-1.2-1.1-2-2.5-2.7-4c-0.7-1.5-1-3.1-1-4.9
			c0-1.8,0.3-3.4,1-4.9c0.6-1.5,1.5-2.8,2.7-4c1.1-1.1,2.5-2,4-2.7c1.5-0.6,3.2-1,4.9-1c3.5,0,6.5,1.2,9,3.7
			c2.5,2.5,3.7,5.4,3.7,8.9c0,3.5-1.3,6.5-3.7,8.9C677.1,80.4,674.1,81.6,670.6,81.6z M660.8,165V91.5h19.6V165H660.8z"/>
		<path fill="#FFFFFF" d="M767.4,146.2c-3.2,6.2-7.7,11.3-13.4,15.2c-5.7,3.9-12.9,5.9-21.5,5.9c-5.7,0-10.9-1-15.7-2.9
			c-4.7-1.9-8.8-4.7-12.3-8.2c-3.4-3.5-6.1-7.6-8.1-12.4c-1.9-4.7-2.9-10-2.9-15.7c0-5.7,1-10.9,2.9-15.7c1.9-4.8,4.6-8.9,8.1-12.4
			c3.4-3.4,7.5-6.1,12.3-8.1c4.7-1.9,10-2.9,15.7-2.9c8.5,0,15.6,1.9,21.4,5.8c5.8,3.9,10,8.9,12.7,15.1l-18,7.5
			c-1.7-3.4-3.9-6-6.5-7.7c-2.6-1.7-6-2.6-10-2.6c-2.6,0-5,0.5-7.3,1.5c-2.3,1-4.3,2.4-6.1,4.2c-1.7,1.8-3.1,4-4.1,6.6
			c-1,2.6-1.5,5.5-1.5,8.7c0,3.2,0.5,6.1,1.5,8.7c1,2.6,2.4,4.8,4.1,6.6c1.7,1.8,3.8,3.2,6.1,4.2c2.3,1,4.7,1.5,7.3,1.5
			c4.1,0,7.6-0.9,10.4-2.8c2.8-1.8,5.1-4.5,6.8-8L767.4,146.2z"/>
		<path fill="#FFFFFF" d="M823.9,157.2h-1.2c-2.3,2.8-5.1,5.2-8.3,7.2c-3.2,2-7.4,3-12.5,3c-3.8,0-7.4-0.6-10.7-1.9
			c-3.3-1.2-6.3-3-8.8-5.2c-2.5-2.2-4.4-4.8-5.8-7.9c-1.4-3.1-2.1-6.5-2.1-10.2c0-3.8,0.7-7.2,2.2-10.3c1.5-3,3.6-5.7,6.3-7.9
			c2.7-2.2,5.9-3.9,9.5-5c3.6-1.1,7.6-1.7,11.9-1.7c4.8,0,8.7,0.4,11.8,1.1c3.1,0.7,5.6,1.5,7.6,2.3v-2.2c0-3.9-1.6-7.1-4.6-9.7
			c-3.1-2.5-6.9-3.8-11.5-3.8c-6.8,0-12.5,2.8-17.2,8.5l-14.2-9.7c7.8-9.8,18.4-14.7,31.9-14.7c11.4,0,20.1,2.7,26.1,8
			c6,5.3,9,13.3,9,23.8V165h-19.3V157.2z M823.9,135.1c-2.3-1.1-4.7-2-7.1-2.6c-2.5-0.6-5.1-1-8-1c-4.7,0-8.3,1-10.9,3.1
			c-2.5,2-3.8,4.6-3.8,7.6c0,3,1.2,5.4,3.7,7.2c2.4,1.8,5.3,2.7,8.5,2.7c2.6,0,5-0.5,7.2-1.4c2.2-0.9,4.1-2.2,5.6-3.7
			c1.5-1.5,2.7-3.3,3.6-5.4C823.5,139.5,823.9,137.3,823.9,135.1z"/>
		<path fill="#FFFFFF" d="M877.3,101.1h1.2c2.3-3.7,5.4-6.6,9.3-8.8c3.9-2.1,8.3-3.2,13.3-3.2c4.6,0,8.6,0.7,12.1,2.2
			c3.5,1.5,6.4,3.6,8.6,6.4c2.2,2.8,3.9,6,5.1,9.9c1.1,3.8,1.7,8.1,1.7,12.8V165h-19.6v-42.1c0-5.3-1.2-9.2-3.5-11.8
			c-2.3-2.5-5.8-3.8-10.3-3.8c-2.7,0-5.1,0.6-7.1,1.7c-2,1.2-3.8,2.7-5.2,4.6c-1.5,1.9-2.5,4.2-3.3,6.9c-0.7,2.6-1.1,5.5-1.1,8.5v36
			h-19.6V91.5h18.4V101.1z"/>
		<path fill="#FFFFFF" d="M439.4,182h19.9l32.8,56.8h1.2l32.8-56.8h20.1v107.3h-20.1v-52.9l1.2-18h-1.2l-27.3,48.1h-12.1l-27.4-48.1
			h-1.2l1.2,18v52.9h-19.9V182z"/>
		<path fill="#FFFFFF" d="M607.6,213.5c5.7,0,10.9,1,15.7,2.9c4.7,1.9,8.8,4.6,12.3,8.1c3.4,3.4,6.1,7.6,8.1,12.4
			c1.9,4.8,2.9,10,2.9,15.7c0,5.7-1,10.9-2.9,15.7s-4.6,8.9-8.1,12.4c-3.4,3.4-7.5,6.1-12.3,8.1c-4.7,1.9-10,2.9-15.7,2.9
			c-5.7,0-10.9-1-15.7-2.9c-4.7-1.9-8.8-4.6-12.3-8.1c-3.4-3.4-6.1-7.6-8.1-12.4c-1.9-4.8-2.9-10-2.9-15.7c0-5.7,1-10.9,2.9-15.7
			c1.9-4.8,4.6-8.9,8.1-12.4c3.4-3.4,7.5-6.1,12.3-8.1C596.7,214.5,601.9,213.5,607.6,213.5z M607.6,273.6c2.5,0,4.9-0.5,7.3-1.4
			c2.3-0.9,4.4-2.3,6.2-4.1c1.8-1.8,3.2-4,4.3-6.6c1-2.6,1.6-5.5,1.6-8.8c0-3.3-0.5-6.2-1.6-8.8c-1-2.6-2.5-4.8-4.3-6.6
			c-1.8-1.8-3.9-3.2-6.2-4.1c-2.3-0.9-4.8-1.4-7.3-1.4c-2.6,0-5,0.5-7.3,1.4c-2.3,1-4.3,2.3-6.1,4.1c-1.8,1.8-3.2,4-4.3,6.6
			c-1,2.6-1.6,5.5-1.6,8.8c0,3.3,0.5,6.2,1.6,8.8c1,2.6,2.5,4.8,4.3,6.6c1.8,1.8,3.8,3.2,6.1,4.1C602.6,273.2,605,273.6,607.6,273.6
			z"/>
		<path fill="#FFFFFF" d="M683.5,225.5h1.2c2.3-3.7,5.4-6.6,9.3-8.8c3.9-2.1,8.3-3.2,13.3-3.2c4.6,0,8.6,0.7,12.1,2.2
			c3.5,1.5,6.4,3.6,8.6,6.4c2.2,2.8,3.9,6,5.1,9.9c1.1,3.8,1.7,8.1,1.7,12.8v44.5h-19.6v-42.1c0-5.3-1.2-9.2-3.5-11.8
			c-2.3-2.5-5.8-3.8-10.3-3.8c-2.7,0-5.1,0.6-7.1,1.7c-2,1.2-3.8,2.7-5.2,4.6c-1.5,1.9-2.5,4.2-3.3,6.9c-0.7,2.6-1.1,5.5-1.1,8.5v36
			H665v-73.5h18.4V225.5z"/>
		<path fill="#FFFFFF" d="M828,271.7c-3.4,6-8,10.8-13.7,14.5c-5.7,3.7-12.8,5.5-21.1,5.5c-5.6,0-10.8-1-15.5-2.9
			c-4.7-1.9-8.9-4.7-12.4-8.2c-3.5-3.5-6.2-7.6-8.2-12.4c-1.9-4.7-2.9-10-2.9-15.7c0-5.3,0.9-10.3,2.8-15.1
			c1.9-4.7,4.5-8.9,7.9-12.4c3.4-3.5,7.4-6.4,12.1-8.5c4.6-2.1,9.8-3.1,15.4-3.1c5.9,0,11.1,1,15.7,2.9c4.6,1.9,8.4,4.6,11.5,8.1
			c3.1,3.4,5.4,7.5,7,12.2c1.6,4.7,2.4,9.8,2.4,15.3c0,0.7,0,1.3,0,1.8c-0.1,0.6-0.1,1.2-0.1,1.6c-0.1,0.5-0.1,1-0.1,1.6h-55.3
			c0.4,3,1.2,5.6,2.5,7.7c1.2,2.2,2.8,3.9,4.6,5.4c1.8,1.5,3.9,2.5,6.1,3.1c2.2,0.7,4.4,1,6.7,1c4.5,0,8.2-1,11.2-3.1
			c2.9-2,5.3-4.6,7-7.7L828,271.7z M810.2,243.2c-0.1-1.3-0.5-2.7-1.3-4.3c-0.7-1.6-1.9-3.1-3.3-4.5c-1.5-1.4-3.2-2.5-5.4-3.4
			c-2.2-0.9-4.7-1.3-7.7-1.3c-4.2,0-7.9,1.2-11.1,3.6c-3.2,2.4-5.4,5.7-6.7,10H810.2z"/>
		<path fill="#FFFFFF" d="M870.7,285.8l-30.9-69.9h22.3l18.6,44.5h1l17.8-44.5h21.9l-46,105.8h-21.1L870.7,285.8z"/>
	</g>
	<g>
		<path fill="#3D4351" d="M280.1,350.3H159.6c-55.5,0-100.9-45.4-100.9-100.9V128.8c0-55.5,45.4-100.9,100.9-100.9h120.6
			c55.5,0,100.9,45.4,100.9,100.9v120.6C381,304.9,335.6,350.3,280.1,350.3z"/>
		<g>
			<path fill="#50D38A" d="M328.7,257.8c-0.9,0.2-1.8,0.6-2.6,0.6c-20.2,0-40.5,0-60.7,0c-1.1-2.4-2.1-4.9-3.3-7.3
				c-4-8-8.1-16.1-12.4-24.5c-9.9,10.8-19.5,21.3-29.2,31.8h-1.3c-2.3-2.9-4.6-5.8-6.9-8.7c-12.8-15.7-25.7-31.4-38.5-47.1
				c-4.4-5.4-8.8-10.7-13.2-16l11.4-16.5c1.8,1.2,3.7,2.5,5.5,3.7c13.5,9.1,27.1,18.3,40.7,27.3c0.7,0.5,2.2,0.6,2.7,0.2
				c3.8-3.3,7.4-6.8,11.1-10.2c-4.1-8-8-15.8-12.1-23.9c-3.4,5.8-6.4,11.1-9.6,16.7c-11.2-7.3-22-14.3-32.9-21.4
				c5.8-8.4,11.5-16.7,17.3-25l3.1-4.4c8.5-12.3,17-24.6,25.5-36.8h0.7c17.2,26.5,34.4,53.1,51.5,79.6c8.2,12.6,16.3,25.3,24.5,37.9
				C309.4,228.4,319.1,243.1,328.7,257.8z"/>
			<path fill="#50D38A" d="M111,257.8c8-11.4,16-22.8,23.9-34.2c6.5-9.3,13-18.7,19.8-28.4c3.4,4.2,6.5,8.1,9.6,12
				c5.8,7.3,11.6,14.6,17.4,21.9c0.7,0.8,1.2,2.6,0.8,3.3c-4.8,8.7-9.8,17.3-14.8,26c-18,0-36.1,0-54.1,0
				C112.7,258.4,111.8,258,111,257.8z"/>
		</g>
	</g>
</g>
</svg>
